<svg xmlns="http://www.w3.org/2000/svg" xmlns:xlink="http://www.w3.org/1999/xlink" width="140" height="140" viewBox="0 0 140 140"><defs><clipPath id="a"><rect width="140" height="140" fill="#000"/></clipPath></defs><g clip-path="url(#a)"><path d="M134.5,42.753A70.23,70.23,0,1,0,140,70a69.77,69.77,0,0,0-5.5-27.247M133.9,97A69.582,69.582,0,1,1,139.353,70,69.125,69.125,0,0,1,133.9,97" fill="#000"/><path d="M315.735,187.515a27.719,27.719,0,0,0-14.11-6.279q11.391-.516,18.641-6.364a12.818,12.818,0,0,0,5.048-9.547,11.2,11.2,0,0,0-2.357-6.168c-.172-.3-.359-.6-.565-.893q-2.963-4.428-11.739-8.518-3.4-1.533-16.018-6.047-9-3.236-12.07-5.664t-3.071-4.9a7.326,7.326,0,0,1,.658-3.066q2.3-4.769,8.667-6.644a22.574,22.574,0,0,1,6.255-.852,20.775,20.775,0,0,1,7.131,1.448,16.745,16.745,0,0,1,5.924,3.833,14.812,14.812,0,0,1,4.389,10.306l9.216-2.811q-3.183-8.177-12.617-11.839a36.362,36.362,0,0,0-13.056-2.3,33.588,33.588,0,0,0-15.141,3.321,22.022,22.022,0,0,0-6.583,4.855,13.238,13.238,0,0,0-3.51,8.773,10.068,10.068,0,0,0,1.92,5.835,16.63,16.63,0,0,0,5.759,4.9q2.1,1.1,4.55,2.152h-12.11v60.378H284.8l.13-30.1q11,.258,16.828,5.375a27.558,27.558,0,0,1,8.156,12.041,46.755,46.755,0,0,1,2.588,12.686h12.945l.129-2.322a27.644,27.644,0,0,0-9.838-21.588m-23.3-33q10.313,3.577,14.592,6.047a17.934,17.934,0,0,1,4.562,3.646,13.1,13.1,0,0,1,.128,1.8q0,7.57-6.732,11.956a15.289,15.289,0,0,1-3.883,1.548c-.188.026-.379.048-.569.072q-.8.054-1.625.055a17.939,17.939,0,0,1-5.76-1.022,20.33,20.33,0,0,1-5.651-2.981,15.423,15.423,0,0,1-2.576-2.364V152.337h1.3q2.9,1.117,6.211,2.179" transform="translate(-226.998 -101.597)" fill="#000"/></g></svg>